# xmcd CD database file
#
# Track frame offsets:
#	150
#	20039
#	55342
#	68596
#	90615
#	110303
#	129345
#	146762
#	166764
#	185426
#	214464
#	245230
#
# Disc length: 3632 seconds
#
# Revision: 0
# Processed by: cddbd v1.5PL3 Copyright (c) Steve Scherf et al.
# Submitted via: CDex 1.40Release
#
DISCID=ae0e2e0c
DTITLE=Gary Moore - The Blues Collection
DYEAR=2003
DGENRE=Blues
TTITLE0=Oh pretty woman
TTITLE1=Need your love so bad
TTITLE2=Walking by myself
TTITLE3=The sky is crying
TTITLE4=Gold day in hell
TTITLE5=Merry go round
TTITLE6=Only fool in town
TTITLE7=That kind of woman
TTITLE8=Showbizz blues
TTITLE9=Love that burns
TTITLE10=Parisienne walkways (live)
TTITLE11=King of the blues (live)
EXTD=YEAR: 2003 ID3G: 0
EXTT0=
EXTT1=
EXTT2=
EXTT3=
EXTT4=
EXTT5=
EXTT6=
EXTT7=
EXTT8=
EXTT9=
EXTT10=
EXTT11=
PLAYORDER=
